<svg xmlns="http://www.w3.org/2000/svg" width="100" height="100" fill="none" viewBox="0 0 100 100"><path fill="#CFAA2C" d="M66.1207 56.2947H47.4624L62.9035 75.6135H81.561L66.1207 56.2947Z"/><path fill="#6C6E69" d="M47.4611 8C24.0102 8 5 27.0268 5 50.5001C5 73.9733 24.0102 93 47.4611 93C70.9117 93 89.9241 73.9711 89.9241 50.5001C89.9241 27.0289 70.9132 8 47.4611 8ZM47.4611 80.1209C41.6091 80.1209 35.8879 78.384 31.0223 75.13C26.1564 71.8759 22.3639 67.2507 20.1244 61.8393C17.885 56.428 17.299 50.4735 18.4407 44.7288C19.5823 38.9842 22.4004 33.7074 26.5384 29.5657C30.6765 25.424 35.9484 22.6035 41.6885 21.4609C47.4278 20.3181 53.3775 20.9046 58.784 23.146C64.1905 25.3875 68.8117 29.1833 72.063 34.0534C75.3144 38.9234 77.0497 44.6492 77.0497 50.5064C77.0497 54.3954 76.2841 58.2463 74.7969 61.8393C73.3105 65.4323 71.1311 68.697 68.3836 71.447C65.6353 74.197 62.3742 76.3784 58.784 77.8667C55.1938 79.3549 51.3464 80.1209 47.4611 80.1209Z"/><path fill="#F9BF14" d="M81.5611 75.6135H62.9036L77.0579 92.9999H95.7155L81.5611 75.6135Z"/></svg>